<svg xmlns="http://www.w3.org/2000/svg" xmlns:xlink="http://www.w3.org/1999/xlink" id="Capa_1" x="0" y="0" enable-background="new 0 0 380 380" version="1.1" viewBox="0 0 380 380" xml:space="preserve"><g id="XMLID_2_"><polygon id="XMLID_1476_" fill="#FFDA44" points="351 335 270 155 236.521 229.396 273.077 335"/><polygon id="XMLID_1477_" fill="#FF9811" points="194.375 335 273.077 335 236.521 229.396 190 95 155.172 195.613"/><polygon id="XMLID_1478_" fill="#FF5023" points="190 335 194.375 335 155.172 195.613 110 35 25.625 335"/><rect id="XMLID_1479_" width="40" height="30" x="150" y="5" fill="#ACABB1"/><rect id="XMLID_1480_" width="40" height="30" x="110" y="5" fill="#CDCDD0"/><rect id="XMLID_1481_" width="40" height="30" x="230" y="65" fill="#ACABB1"/><rect id="XMLID_1482_" width="40" height="30" x="190" y="65" fill="#CDCDD0"/><rect id="XMLID_1483_" width="40" height="30" x="310" y="125" fill="#ACABB1"/><rect id="XMLID_1484_" width="40" height="30" x="270" y="125" fill="#CDCDD0"/><polygon id="XMLID_1485_" fill="#CDCDD0" points="190 335 25.625 335 0 335 0 375 190 375"/><polygon id="XMLID_1486_" fill="#ACABB1" points="351 335 273.077 335 194.375 335 190 335 190 375 380 375 380 335"/></g></svg>